# xmcd CD database file
#
# Track frame offsets:
#	150
#	11893
#	25624
#	40077
#	53657
#	68005
#	80787
#	91527
#	103103
#	116327
#	131643
#	144874
#	155945
#	171202
#	185291
#	198461
#	212680
#	226933
#	241768
#	254902
#
# Disc length: 3576 seconds
#
# Revision: 0
# Processed by: cddbd v1.4PL0 Copyright (c) Steve Scherf et al.
# Submitted via: CDex 1.50
#
DISCID=0c0df614
DTITLE=Nat King Cole - Simplemente Nat King Cole
DYEAR=1900
DGENRE=Jazz
TTITLE0=Love is many splendored thing
TTITLE1=For sentimental reasons
TTITLE2=Stardust
TTITLE3=Get your Kicks on route 66
TTITLE4=Don't get around much anymore
TTITLE5=You're nobody till somebody
TTITLE6=When I take my sugar to tea
TTITLE7=Strainghten up and fly richt
TTITLE8=I'm thru with love
TTITLE9=All for you
TTITLE10=Gee baby ain't I good to you
TTITLE11=Jumpin at capitol
TTITLE12=Embraceable you
TTITLE13=Just can't see for lookin
TTITLE14=It's only a paper moon
TTITLE15=Sweet Lorraine
TTITLE16=I realize now
TTITLE17=The frim fram sauce
TTITLE18=I'm a shy guy
TTITLE19=What is this thing called love
EXTD=
EXTT0=
EXTT1=
EXTT2=
EXTT3=
EXTT4=
EXTT5=
EXTT6=
EXTT7=
EXTT8=
EXTT9=
EXTT10=
EXTT11=
EXTT12=
EXTT13=
EXTT14=
EXTT15=
EXTT16=
EXTT17=
EXTT18=
EXTT19=
PLAYORDER=
